<svg width="81" height="86" viewBox="0 0 81 86" fill="none" xmlns="http://www.w3.org/2000/svg">
<path d="M62.3906 19.0381L72.7927 45.2168C73.6973 47.4932 73.2809 50.2907 71.8462 52.1734L56.4422 71.6362C55.6115 72.8416 54.2527 73.8166 52.9318 74.3377L39.9668 41.7092L60.1657 16.1854C61.1086 16.9106 61.9383 17.8999 62.3906 19.0381Z" fill="white"/>
<path d="M62.3906 19.0381L72.7927 45.2168C73.6973 47.4932 73.2809 50.2907 71.8462 52.1734L56.4422 71.6362C55.6115 72.8416 54.2527 73.8166 52.9318 74.3377L39.9668 41.7092L60.1657 16.1854C61.1086 16.9106 61.9383 17.8999 62.3906 19.0381Z" fill="url(#paint0_linear_212_657)" fill-opacity="0.84"/>
<path d="M39.909 41.7704L52.874 74.3989C51.5531 74.92 50.0815 75.0617 48.4591 74.824L23.859 71.1434C21.331 70.8241 19.3697 69.184 18.3898 66.7179L7.98765 40.5393C7.53539 39.4011 7.46051 38.114 7.64972 36.9421L39.909 41.7704Z" fill="white"/>
<path d="M39.909 41.7704L52.874 74.3989C51.5531 74.92 50.0815 75.0617 48.4591 74.824L23.859 71.1434C21.331 70.8241 19.3697 69.184 18.3898 66.7179L7.98765 40.5393C7.53539 39.4011 7.46051 38.114 7.64972 36.9421L39.909 41.7704Z" fill="url(#paint1_linear_212_657)"/>
<path d="M60.2158 16.2164L39.9862 41.7781L7.67188 36.9457C7.86138 35.7721 7.98177 34.4059 8.8892 33.3886L24.7326 13.2932C26.1695 11.4078 28.6263 10.4386 31.0826 10.5683L57.1556 14.5668C57.1556 14.5668 57.6342 14.6291 58.2206 14.8375C58.8069 15.046 59.4603 15.4156 60.2158 16.2164Z" fill="white"/>
<path d="M60.2158 16.2164L39.9862 41.7781L7.67188 36.9457C7.86138 35.7721 7.98177 34.4059 8.8892 33.3886L24.7326 13.2932C26.1695 11.4078 28.6263 10.4386 31.0826 10.5683L57.1556 14.5668C57.1556 14.5668 57.6342 14.6291 58.2206 14.8375C58.8069 15.046 59.4603 15.4156 60.2158 16.2164Z" fill="url(#paint2_linear_212_657)" fill-opacity="0.74"/>
<defs>
<linearGradient id="paint0_linear_212_657" x1="47.5257" y1="21.1721" x2="66.4012" y2="69.017" gradientUnits="userSpaceOnUse">
<stop stop-color="#FEE6A7"/>
<stop offset="1" stop-color="#78B3F3"/>
</linearGradient>
<linearGradient id="paint1_linear_212_657" x1="20.2954" y1="31.9532" x2="39.1709" y2="79.7981" gradientUnits="userSpaceOnUse">
<stop stop-color="#D994B2"/>
<stop offset="1" stop-color="#7F9EF3"/>
</linearGradient>
<linearGradient id="paint2_linear_212_657" x1="27.6956" y1="11.106" x2="39.8202" y2="41.8392" gradientUnits="userSpaceOnUse">
<stop stop-color="#D7BF91"/>
<stop offset="1" stop-color="#72C5F3"/>
</linearGradient>
</defs>
</svg>
