<svg width="59" height="59" viewBox="0 0 59 59" fill="none" xmlns="http://www.w3.org/2000/svg">
<g clip-path="url(#clip0_212_678)">
<path d="M45.6221 30.7415L38.3163 42.8058C37.681 43.8549 36.4378 44.5319 35.2518 44.5249L22.8176 44.2233C22.0848 44.254 21.2842 44.0036 20.6763 43.6315L29.7821 28.5949L46.0879 28.9896C46.0836 29.5861 45.9397 30.217 45.6221 30.7415Z" fill="white"/>
<path d="M45.6221 30.7415L38.3163 42.8058C37.681 43.8549 36.4378 44.5319 35.2518 44.5249L22.8176 44.2233C22.0848 44.254 21.2842 44.0036 20.6763 43.6315L29.7821 28.5949L46.0879 28.9896C46.0836 29.5861 45.9397 30.217 45.6221 30.7415Z" fill="url(#paint0_linear_212_678)" fill-opacity="0.84"/>
<path d="M29.7396 28.5906L20.6339 43.6273C20.026 43.2552 19.524 42.7083 19.1279 41.9865L13.1524 31.0193C12.5148 29.9101 12.5762 28.6295 13.2644 27.493L20.5701 15.4287C20.8878 14.9042 21.3791 14.486 21.9044 14.2083L29.7396 28.5906Z" fill="white"/>
<path d="M29.7396 28.5906L20.6339 43.6273C20.026 43.2552 19.524 42.7083 19.1279 41.9865L13.1524 31.0193C12.5148 29.9101 12.5762 28.6295 13.2644 27.493L20.5701 15.4287C20.8878 14.9042 21.3791 14.486 21.9044 14.2083L29.7396 28.5906Z" fill="url(#paint1_linear_212_678)"/>
<path d="M46.0898 29.0188L29.7596 28.6232L21.9093 14.2176C22.4353 13.9396 23.0173 13.5757 23.6982 13.6325L36.518 13.9193C37.7058 13.9264 38.8364 14.6185 39.528 15.6418L45.8223 27.295C45.8223 27.295 45.9423 27.5056 46.0366 27.8034C46.1307 28.1012 46.1809 28.4745 46.0898 29.0188Z" fill="white"/>
<path d="M46.0898 29.0188L29.7596 28.6232L21.9093 14.2176C22.4353 13.9396 23.0173 13.5757 23.6982 13.6325L36.518 13.9193C37.7058 13.9264 38.8364 14.6185 39.528 15.6418L45.8223 27.295C45.8223 27.295 45.9423 27.5056 46.0366 27.8034C46.1307 28.1012 46.1809 28.4745 46.0898 29.0188Z" fill="url(#paint2_linear_212_678)" fill-opacity="0.74"/>
</g>
<defs>
<linearGradient id="paint0_linear_212_678" x1="40.271" y1="25.429" x2="26.8268" y2="47.3926" gradientUnits="userSpaceOnUse">
<stop stop-color="#FEE6A7"/>
<stop offset="1" stop-color="#78B3F3"/>
</linearGradient>
<linearGradient id="paint1_linear_212_678" x1="27.7239" y1="17.7705" x2="14.2797" y2="39.7341" gradientUnits="userSpaceOnUse">
<stop stop-color="#D994B2"/>
<stop offset="1" stop-color="#7F9EF3"/>
</linearGradient>
<linearGradient id="paint2_linear_212_678" x1="38.2882" y1="14.4469" x2="29.6523" y2="28.5551" gradientUnits="userSpaceOnUse">
<stop stop-color="#D7BF91"/>
<stop offset="1" stop-color="#72C5F3"/>
</linearGradient>
<clipPath id="clip0_212_678">
<rect width="40.6738" height="43.0385" fill="white" transform="translate(34.3418) rotate(52.935)"/>
</clipPath>
</defs>
</svg>
