<svg width="104" height="110" viewBox="0 0 104 110" fill="none" xmlns="http://www.w3.org/2000/svg">
<path d="M80.1055 24.3511L93.4613 57.8355C94.6227 60.7471 94.0881 64.3253 92.246 66.7334L72.4681 91.6277C71.4015 93.1695 69.6568 94.4166 67.9609 95.0831L51.3145 53.349L77.2488 20.7023C78.4595 21.6299 79.5248 22.8952 80.1055 24.3511Z" fill="white"/>
<path d="M80.1055 24.3511L93.4613 57.8355C94.6227 60.7471 94.0881 64.3253 92.246 66.7334L72.4681 91.6277C71.4015 93.1695 69.6568 94.4166 67.9609 95.0831L51.3145 53.349L77.2488 20.7023C78.4595 21.6299 79.5248 22.8952 80.1055 24.3511Z" fill="url(#paint0_linear_212_664)" fill-opacity="0.84"/>
<path d="M51.2412 53.4274L67.8876 95.1616C66.1916 95.8281 64.3022 96.0093 62.2191 95.7053L30.6338 90.9976C27.3879 90.5892 24.8697 88.4914 23.6116 85.337L10.2557 51.8528C9.675 50.3969 9.57885 48.7507 9.82179 47.2517L51.2412 53.4274Z" fill="white"/>
<path d="M51.2412 53.4274L67.8876 95.1616C66.1916 95.8281 64.3022 96.0093 62.2191 95.7053L30.6338 90.9976C27.3879 90.5892 24.8697 88.4914 23.6116 85.337L10.2557 51.8528C9.675 50.3969 9.57885 48.7507 9.82179 47.2517L51.2412 53.4274Z" fill="url(#paint1_linear_212_664)"/>
<path d="M77.3134 20.7419L51.3396 53.437L9.84961 47.2561C10.0929 45.755 10.2475 44.0075 11.4126 42.7063L31.7547 17.0029C33.5996 14.5913 36.754 13.3516 39.9078 13.5175L73.3842 18.6319C73.3842 18.6319 73.9987 18.7116 74.7516 18.9781C75.5044 19.2448 76.3433 19.7176 77.3134 20.7419Z" fill="white"/>
<path d="M77.3134 20.7419L51.3396 53.437L9.84961 47.2561C10.0929 45.755 10.2475 44.0075 11.4126 42.7063L31.7547 17.0029C33.5996 14.5913 36.754 13.3516 39.9078 13.5175L73.3842 18.6319C73.3842 18.6319 73.9987 18.7116 74.7516 18.9781C75.5044 19.2448 76.3433 19.7176 77.3134 20.7419Z" fill="url(#paint2_linear_212_664)" fill-opacity="0.74"/>
<defs>
<linearGradient id="paint0_linear_212_664" x1="61.0197" y1="27.0806" x2="85.0956" y2="88.3402" gradientUnits="userSpaceOnUse">
<stop stop-color="#FEE6A7"/>
<stop offset="1" stop-color="#78B3F3"/>
</linearGradient>
<linearGradient id="paint1_linear_212_664" x1="26.0583" y1="40.8706" x2="50.1342" y2="102.13" gradientUnits="userSpaceOnUse">
<stop stop-color="#D994B2"/>
<stop offset="1" stop-color="#7F9EF3"/>
</linearGradient>
<linearGradient id="paint2_linear_212_664" x1="35.559" y1="14.2053" x2="51.0241" y2="53.5554" gradientUnits="userSpaceOnUse">
<stop stop-color="#D7BF91"/>
<stop offset="1" stop-color="#72C5F3"/>
</linearGradient>
</defs>
</svg>
