<svg width="120" height="123" viewBox="0 0 120 123" fill="none" xmlns="http://www.w3.org/2000/svg">
<g clip-path="url(#clip0_212_671)">
<path d="M68.0525 28.0606L91.1321 46.9454C93.1391 48.5875 94.1861 51.3913 93.8185 53.872L89.4855 79.8111C89.3317 81.3542 88.5693 82.9555 87.6094 84.1172L58.8435 60.5797L64.5238 26.5639C65.7713 26.7504 67.049 27.2395 68.0525 28.0606Z" fill="white"/>
<path d="M68.0525 28.0606L91.1321 46.9454C93.1391 48.5875 94.1861 51.3913 93.8185 53.872L89.4855 79.8111C89.3317 81.3542 88.5693 82.9555 87.6094 84.1172L58.8435 60.5797L64.5238 26.5639C65.7713 26.7504 67.049 27.2395 68.0525 28.0606Z" fill="url(#paint0_linear_212_671)" fill-opacity="0.84"/>
<path d="M58.8204 60.6657L87.5863 84.2032C86.6264 85.3649 85.3321 86.2529 83.7033 86.8672L58.9667 96.1111C56.4549 97.1156 53.7925 96.606 51.6183 94.827L28.5387 75.9423C27.5352 75.1212 26.806 73.9682 26.3811 72.7861L58.8204 60.6657Z" fill="white"/>
<path d="M58.8204 60.6657L87.5863 84.2032C86.6264 85.3649 85.3321 86.2529 83.7033 86.8672L58.9667 96.1111C56.4549 97.1156 53.7925 96.606 51.6183 94.827L28.5387 75.9423C27.5352 75.1212 26.806 73.9682 26.3811 72.7861L58.8204 60.6657Z" fill="url(#paint1_linear_212_671)"/>
<path d="M64.5859 26.5671L58.8965 60.6337L26.4041 72.7785C25.9786 71.5946 25.3902 70.268 25.7117 68.8596L30.1285 42.109C30.4969 39.6246 32.2821 37.464 34.6302 36.3208L60.8979 26.6137C60.8979 26.6137 61.3744 26.4253 62.0259 26.3166C62.6773 26.2081 63.4737 26.2143 64.5859 26.5671Z" fill="white"/>
<path d="M64.5859 26.5671L58.8965 60.6337L26.4041 72.7785C25.9786 71.5946 25.3902 70.268 25.7117 68.8596L30.1285 42.109C30.4969 39.6246 32.2821 37.464 34.6302 36.3208L60.8979 26.6137C60.8979 26.6137 61.3744 26.4253 62.0259 26.3166C62.6773 26.2081 63.4737 26.2143 64.5859 26.5671Z" fill="url(#paint2_linear_212_671)" fill-opacity="0.74"/>
</g>
<defs>
<linearGradient id="paint0_linear_212_671" x1="55.3388" y1="37.6807" x2="97.3135" y2="72.3618" gradientUnits="userSpaceOnUse">
<stop stop-color="#FEE6A7"/>
<stop offset="1" stop-color="#78B3F3"/>
</linearGradient>
<linearGradient id="paint1_linear_212_671" x1="35.5703" y1="61.6644" x2="77.545" y2="96.3456" gradientUnits="userSpaceOnUse">
<stop stop-color="#D994B2"/>
<stop offset="1" stop-color="#7F9EF3"/>
</linearGradient>
<linearGradient id="paint2_linear_212_671" x1="31.7597" y1="38.5604" x2="58.7221" y2="60.838" gradientUnits="userSpaceOnUse">
<stop stop-color="#D7BF91"/>
<stop offset="1" stop-color="#72C5F3"/>
</linearGradient>
<clipPath id="clip0_212_671">
<rect width="86" height="91" fill="white" transform="translate(0.341797 42.522) rotate(-28.9713)"/>
</clipPath>
</defs>
</svg>
